<?xml version="1.0" encoding="UTF-8"?>
<svg version="1.1" xmlns="http://www.w3.org/2000/svg" width="643" height="61">
<path d="M0 0 C1 1 1 1 1.1875 4.8125 C1.1585691 8.03540201 0.82970185 10.25544723 -1 13 C-2.98 13 -4.96 13 -7 13 C-7.33 11.02 -7.66 9.04 -8 7 C-9.98 7 -11.96 7 -14 7 C-14.33 9.64 -14.66 12.28 -15 15 C-14.07316406 15.06058594 -13.14632812 15.12117188 -12.19140625 15.18359375 C-10.99386719 15.26738281 -9.79632813 15.35117187 -8.5625 15.4375 C-7.36753906 15.51871094 -6.17257813 15.59992187 -4.94140625 15.68359375 C-2 16 -2 16 -1 17 C-0.68287515 22.91966392 -1.29390588 28.30886851 -3 34 C-4.83034055 35.83034055 -7.73211992 35.13042797 -10.1875 35.1328125 C-11.44304687 35.13410156 -12.69859375 35.13539062 -13.9921875 35.13671875 C-14.64928711 35.13462402 -15.30638672 35.1325293 -15.98339844 35.13037109 C-17.99161335 35.12502234 -19.99960459 35.13031691 -22.0078125 35.13671875 C-23.26335937 35.13542969 -24.51890625 35.13414063 -25.8125 35.1328125 C-26.97394531 35.13168457 -28.13539062 35.13055664 -29.33203125 35.12939453 C-32 35 -32 35 -33 34 C-33 31.69 -33 29.38 -33 27 C-27.39 27 -21.78 27 -16 27 C-16 25.68 -16 24.36 -16 23 C-16.98742187 23.02320312 -17.97484375 23.04640625 -18.9921875 23.0703125 C-20.27351563 23.08835937 -21.55484375 23.10640625 -22.875 23.125 C-24.15117188 23.14820312 -25.42734375 23.17140625 -26.7421875 23.1953125 C-30 23 -30 23 -32 21 C-32.72946629 14.46039873 -30.67981849 7.52392104 -27.11328125 2.1015625 C-19.87363132 -2.78542829 -8.37445815 -1.09385218 0 0 Z " fill="#00448F" transform="translate(107,12)"/>
<path d="M0 0 C2.43206072 4.54741283 1.91008483 6.95316593 1 12 C0 13 0 13 -3.5625 13.0625 C-4.696875 13.041875 -5.83125 13.02125 -7 13 C-7 11.02 -7 9.04 -7 7 C-9.41645782 6.83312552 -9.41645782 6.83312552 -12 7 C-14.76223278 9.76223278 -14.57856291 12.20706617 -15 16 C-10.71 16 -6.42 16 -2 16 C0.24954812 20.49909624 0.0532102 21.816593 -0.75 26.625 C-0.93046875 27.77226563 -1.1109375 28.91953125 -1.296875 30.1015625 C-2 33 -2 33 -4 35 C-6.79736328 35.22705078 -6.79736328 35.22705078 -10.3203125 35.1953125 C-12.20556641 35.18564453 -12.20556641 35.18564453 -14.12890625 35.17578125 C-16.10697266 35.15064453 -16.10697266 35.15064453 -18.125 35.125 C-19.46483721 35.11496983 -20.80468152 35.10584404 -22.14453125 35.09765625 C-25.42986573 35.07402075 -28.71484465 35.04107234 -32 35 C-33 33 -33 33 -33 26 C-27.39 26 -21.78 26 -16 26 C-15.67 25.01 -15.34 24.02 -15 23 C-16.48113281 23.01740234 -16.48113281 23.01740234 -17.9921875 23.03515625 C-19.27351563 23.04417969 -20.55484375 23.05320312 -21.875 23.0625 C-23.15117188 23.07410156 -24.42734375 23.08570312 -25.7421875 23.09765625 C-29 23 -29 23 -31 22 C-31.99505798 14.86085383 -30.90026515 8.51666458 -27.15234375 2.3203125 C-19.86303217 -3.04505439 -8.60839437 -0.7835859 0 0 Z " fill="#00448F" transform="translate(72,12)"/>
<path d="M0 0 C3.95827235 -0.05785647 7.9164367 -0.09354717 11.875 -0.125 C13.00292969 -0.14175781 14.13085938 -0.15851562 15.29296875 -0.17578125 C16.36933594 -0.18222656 17.44570312 -0.18867188 18.5546875 -0.1953125 C19.54968262 -0.20578613 20.54467773 -0.21625977 21.56982422 -0.22705078 C24 0 24 0 26 2 C26.01171875 4.34765625 26.01171875 4.34765625 25.6875 7.0625 C25.58824219 7.96097656 25.48898438 8.85945313 25.38671875 9.78515625 C25 12 25 12 24 13 C22.00041636 13.04080783 19.99954746 13.04254356 18 13 C18 10.69 18 8.38 18 6 C13.08358137 7.58283804 13.08358137 7.58283804 9.5625 11.0625 C8.74246075 15.34492717 8.4777834 19.66099446 9 24 C11.68092691 26.68092691 13.39167363 26.38670257 17.125 26.625 C18.22070312 26.69976562 19.31640625 26.77453125 20.4453125 26.8515625 C21.28835937 26.90054688 22.13140625 26.94953125 23 27 C21.125 33.875 21.125 33.875 20 35 C15.52668042 35.25380234 11.0421654 35.18522721 6.5625 35.1875 C5.29599609 35.19974609 4.02949219 35.21199219 2.72460938 35.22460938 C1.51740234 35.22654297 0.31019531 35.22847656 -0.93359375 35.23046875 C-2.6050647 35.23663208 -2.6050647 35.23663208 -4.31030273 35.24291992 C-7 35 -7 35 -9 33 C-9.23155817 29.84665066 -8.81253814 26.70374919 -8.5 23.5625 C-8.41177979 22.65902832 -8.32355957 21.75555664 -8.23266602 20.82470703 C-7.36864106 13.53968817 -5.25179094 8.0244035 -1 2 C-0.67 1.34 -0.34 0.68 0 0 Z " fill="#00448F" transform="translate(117,12)"/>
<path d="M0 0 C1.07507813 -0.00128906 2.15015625 -0.00257812 3.2578125 -0.00390625 C4.38960937 -0.00003906 5.52140625 0.00382813 6.6875 0.0078125 C7.81929687 0.00394531 8.95109375 0.00007812 10.1171875 -0.00390625 C11.19226563 -0.00261719 12.26734375 -0.00132813 13.375 0 C14.86580078 0.00169189 14.86580078 0.00169189 16.38671875 0.00341797 C18.6875 0.1328125 18.6875 0.1328125 19.6875 1.1328125 C19.62357199 2.96928992 19.48694271 4.80352142 19.3125 6.6328125 C19.17714844 8.13328125 19.17714844 8.13328125 19.0390625 9.6640625 C18.6875 12.1328125 18.6875 12.1328125 17.6875 13.1328125 C15.68791636 13.17362033 13.68704746 13.17535606 11.6875 13.1328125 C11.6875 11.1528125 11.6875 9.1728125 11.6875 7.1328125 C8.76547583 6.99249684 8.76547583 6.99249684 5.6875 8.1328125 C2.69478003 12.62737362 2.17006284 17.85495346 2.6875 23.1328125 C3.3475 24.1228125 4.0075 25.1128125 4.6875 26.1328125 C7.57345946 26.71762371 7.57345946 26.71762371 10.8125 26.8203125 C11.90820312 26.88605469 13.00390625 26.95179687 14.1328125 27.01953125 C14.97585937 27.05691406 15.81890625 27.09429687 16.6875 27.1328125 C15.8125 34.0078125 15.8125 34.0078125 14.6875 35.1328125 C12.6269469 35.23274782 10.5629741 35.26362156 8.5 35.265625 C7.24445312 35.26691406 5.98890625 35.26820312 4.6953125 35.26953125 C4.03821289 35.26743652 3.38111328 35.2653418 2.70410156 35.26318359 C0.69588665 35.25783484 -1.31210459 35.26312941 -3.3203125 35.26953125 C-4.57585938 35.26824219 -5.83140625 35.26695313 -7.125 35.265625 C-8.28644531 35.26449707 -9.44789062 35.26336914 -10.64453125 35.26220703 C-13.3125 35.1328125 -13.3125 35.1328125 -14.3125 34.1328125 C-15.30092103 21.88098904 -13.54240502 11.18722852 -6.3125 1.1328125 C-4.59682208 -0.58286542 -2.33877265 0.00265425 0 0 Z " fill="#00448F" transform="translate(19.3125,11.8671875)"/>
<path d="M0 0 C11.22 0 22.44 0 34 0 C34 1.65 34 3.3 34 5 C28.06 5.33 22.12 5.66 16 6 C15.67 7.98 15.34 9.96 15 12 C19.95 12 24.9 12 30 12 C30 17.61 30 23.22 30 29 C31.98 29 33.96 29 36 29 C36 30.65 36 32.3 36 34 C23.79 34 11.58 34 -1 34 C-1 32.35 -1 30.7 -1 29 C1.31 29 3.62 29 6 29 C6.33 25.04 6.66 21.08 7 17 C5.02 17 3.04 17 1 17 C1 15.35 1 13.7 1 12 C3.31 12 5.62 12 8 12 C8 10.02 8 8.04 8 6 C5.36 5.67 2.72 5.34 0 5 C0 3.35 0 1.7 0 0 Z M14 17 C13.67 20.96 13.34 24.92 13 29 C16.63 29 20.26 29 24 29 C24 25.04 24 21.08 24 17 C20.7 17 17.4 17 14 17 Z " fill="#1B3646" transform="translate(235,13)"/>
<path d="M0 0 C2.31 0 4.62 0 7 0 C7 3.3 7 6.6 7 10 C8.155 9.835 9.31 9.67 10.5 9.5 C17.6385158 8.68646128 24.82734659 8.92079278 32 9 C32 10.65 32 12.3 32 14 C19.625 14.495 19.625 14.495 7 15 C7 19.95 7 24.9 7 30 C13.93 30 20.86 30 28 30 C27.67 31.65 27.34 33.3 27 35 C22.68751391 35.02886537 18.37505238 35.04675255 14.0625 35.0625 C12.21495117 35.07506836 12.21495117 35.07506836 10.33007812 35.08789062 C9.16025391 35.09111328 7.99042969 35.09433594 6.78515625 35.09765625 C5.15912476 35.10551147 5.15912476 35.10551147 3.50024414 35.11352539 C1 35 1 35 0 34 C-0.08631874 32.65732587 -0.10706473 31.31025678 -0.09765625 29.96484375 C-0.09443359 29.15595703 -0.09121094 28.34707031 -0.08789062 27.51367188 C-0.07951172 26.66353516 -0.07113281 25.81339844 -0.0625 24.9375 C-0.05798828 24.08349609 -0.05347656 23.22949219 -0.04882812 22.34960938 C-0.03700373 20.23304337 -0.01906769 18.11651315 0 16 C-2.97 16 -5.94 16 -9 16 C-9 14.35 -9 12.7 -9 11 C-6.03 11 -3.06 11 0 11 C0 7.37 0 3.74 0 0 Z " fill="#1B3646" transform="translate(159,12)"/>
<path d="M0 0 C0 1.65 0 3.3 0 5 C-5.445 5.495 -5.445 5.495 -11 6 C-11 7.32 -11 8.64 -11 10 C-7.37 10 -3.74 10 0 10 C-0.33 18.25 -0.66 26.5 -1 35 C-3.31 35 -5.62 35 -8 35 C-8 28.4 -8 21.8 -8 15 C-8.99 15 -9.98 15 -11 15 C-10.99476318 15.57032959 -10.98952637 16.14065918 -10.98413086 16.72827148 C-10.96341779 19.29800323 -10.9503581 21.86771747 -10.9375 24.4375 C-10.92912109 25.33533203 -10.92074219 26.23316406 -10.91210938 27.15820312 C-10.90888672 28.01220703 -10.90566406 28.86621094 -10.90234375 29.74609375 C-10.89710693 30.53685303 -10.89187012 31.3276123 -10.88647461 32.14233398 C-11 34 -11 34 -12 35 C-14.33297433 35.04092937 -16.66705225 35.04241723 -19 35 C-18.88204075 30.31842099 -18.75781451 25.63706712 -18.62768555 20.95581055 C-18.58427854 19.362107 -18.54260781 17.7683552 -18.50268555 16.17456055 C-18.44512193 13.88836092 -18.38138851 11.60240551 -18.31640625 9.31640625 C-18.29969376 8.59973282 -18.28298126 7.88305939 -18.26576233 7.14466858 C-18.11387171 2.11387171 -18.11387171 2.11387171 -17 1 C-11.3177849 -0.08808374 -5.77185149 -0.10452045 0 0 Z " fill="#1B3646" transform="translate(310,12)"/>
<path d="M0 0 C1 2 1 2 0 6 C-3.3 6 -6.6 6 -10 6 C-10 6.99 -10 7.98 -10 9 C-6.7 9 -3.4 9 0 9 C0 14.61 0 20.22 0 26 C-3.3 26 -6.6 26 -10 26 C-10 28.97 -10 31.94 -10 35 C-12.31 35 -14.62 35 -17 35 C-17 23.78 -17 12.56 -17 1 C-8.585 0.505 -8.585 0.505 0 0 Z M-10 14 C-10 16.31 -10 18.62 -10 21 C-8.68 20.67 -7.36 20.34 -6 20 C-6 18.02 -6 16.04 -6 14 C-7.32 14 -8.64 14 -10 14 Z " fill="#1B3646" transform="translate(291,12)"/>
<path d="M0 0 C7.26 0 14.52 0 22 0 C22.20625 2.43375 22.4125 4.8675 22.625 7.375 C22.73062256 8.52234619 22.73062256 8.52234619 22.83837891 9.69287109 C22.97160117 11.45771308 22.98806861 13.23017712 23 15 C22.34 15.66 21.68 16.32 21 17 C21.350625 17.61875 21.70125 18.2375 22.0625 18.875 C22.371875 19.57625 22.68125 20.2775 23 21 C22.67 21.66 22.34 22.32 22 23 C21.34 22.62875 20.68 22.2575 20 21.875 C15.75168704 20.63590872 13.19964064 21.7187537 9 23 C8.67 21.02 8.34 19.04 8 17 C6.68 17 5.36 17 4 17 C4 18.98 4 20.96 4 23 C2.68 22.67 1.36 22.34 0 22 C0 14.74 0 7.48 0 0 Z M4 3 C5 6 5 6 5 6 Z M13 3 C13 3.33 13 3.66 13 4 C14.65 4 16.3 4 18 4 C18 3.67 18 3.34 18 3 C16.35 3 14.7 3 13 3 Z M8 5 C9 9 9 9 9 9 Z M13 7 C13 7.66 13 8.32 13 9 C14.65 9 16.3 9 18 9 C18 8.34 18 7.68 18 7 C16.35 7 14.7 7 13 7 Z M4 9 C4 10.65 4 12.3 4 14 C4.66 13.67 5.32 13.34 6 13 C5.34 11.68 4.68 10.36 4 9 Z M13 12 C13 13.98 13 15.96 13 18 C13.99 17.67 14.98 17.34 16 17 C15.34 15.35 14.68 13.7 14 12 C13.67 12 13.34 12 13 12 Z " fill="#171717" transform="translate(569,11)"/>
<path d="M0 0 C7.26 0 14.52 0 22 0 C21.67 1.65 21.34 3.3 21 5 C20.01 5.495 20.01 5.495 19 6 C19.01160156 6.78246094 19.02320313 7.56492187 19.03515625 8.37109375 C19.04417969 9.38300781 19.05320312 10.39492188 19.0625 11.4375 C19.07410156 12.44683594 19.08570313 13.45617187 19.09765625 14.49609375 C19 17 19 17 18 18 C19.32 18.99 20.64 19.98 22 21 C21.67 21.66 21.34 22.32 21 23 C20.443125 22.91621094 19.88625 22.83242188 19.3125 22.74609375 C13.92556986 22.02722976 9.3644075 22.16759194 4 23 C1 23 1 23 -0.75 21.75 C-1.1625 21.1725 -1.575 20.595 -2 20 C-1.71051757 18.65646406 -1.37082362 17.32339666 -1 16 C-0.77599752 13.24559914 -0.58629885 10.50792411 -0.4375 7.75 C-0.293125 5.1925 -0.14875 2.635 0 0 Z M4 5 C4 8.63 4 12.26 4 16 C4.66 15.67 5.32 15.34 6 15 C5.67 12.03 5.34 9.06 5 6 C6.65 6 8.3 6 10 6 C10 5.67 10 5.34 10 5 C8.02 5 6.04 5 4 5 Z M9 12 C9 12.33 9 12.66 9 13 C11.31 13 13.62 13 16 13 C16 12.67 16 12.34 16 12 C13.69 12 11.38 12 9 12 Z M3 18 C3 18.66 3 19.32 3 20 C3.99 19.67 4.98 19.34 6 19 C5.01 18.67 4.02 18.34 3 18 Z " fill="#171717" transform="translate(345,11)"/>
<path d="M0 0 C1.32 0 2.64 0 4 0 C4 1.65 4 3.3 4 5 C4.66 5 5.32 5 6 5 C6 3.68 6 2.36 6 1 C6.99 1 7.98 1 9 1 C9 3.31 9 5.62 9 8 C4.38 8 -0.24 8 -5 8 C-5 7.01 -5 6.02 -5 5 C-5.99 5 -6.98 5 -8 5 C-8 6.32 -8 7.64 -8 9 C-2.06 9 3.88 9 10 9 C10 9.99 10 10.98 10 12 C8.02 12 6.04 12 4 12 C4 12.66 4 13.32 4 14 C5.98 14 7.96 14 10 14 C10 16.97 10 19.94 10 23 C5.38614673 25.30692664 3.9206839 24.7908242 -1 24 C-3.32158065 24.34659295 -3.32158065 24.34659295 -5 25 C-5 23.35 -5 21.7 -5 20 C-5.763125 20.33 -6.52625 20.66 -7.3125 21 C-10 22 -10 22 -13 22 C-13.33 20.68 -13.66 19.36 -14 18 C-13.01 18 -12.02 18 -11 18 C-11 16.02 -11 14.04 -11 12 C-11.66 12 -12.32 12 -13 12 C-13 11.01 -13 10.02 -13 9 C-12.34 9 -11.68 9 -11 9 C-11 7.68 -11 6.36 -11 5 C-11.99 5 -12.98 5 -14 5 C-14 4.01 -14 3.02 -14 2 C-8.06 1.505 -8.06 1.505 -2 1 C-2 2.32 -2 3.64 -2 5 C-1.34 5 -0.68 5 0 5 C0 3.35 0 1.7 0 0 Z M-8 12 C-8 13.65 -8 15.3 -8 17 C-7.01 17 -6.02 17 -5 17 C-5 16.01 -5 15.02 -5 14 C-3.35 14 -1.7 14 0 14 C0 13.34 0 12.68 0 12 C-2.64 12 -5.28 12 -8 12 Z " fill="#171717" transform="translate(432,9)"/>
<path d="M0 0 C1.32 0 2.64 0 4 0 C4 1.65 4 3.3 4 5 C7.465 4.505 7.465 4.505 11 4 C11 2.68 11 1.36 11 0 C12.32 0 13.64 0 15 0 C15 1.32 15 2.64 15 4 C16.98 4 18.96 4 21 4 C21 4.99 21 5.98 21 7 C19.02 7 17.04 7 15 7 C15 7.99 15 8.98 15 10 C16.98 10 18.96 10 21 10 C19.68 13.3 18.36 16.6 17 20 C18.65 20.33 20.3 20.66 22 21 C21.34 21.99 20.68 22.98 20 24 C18.80375 23.814375 17.6075 23.62875 16.375 23.4375 C12.71716293 22.9688803 9.62137834 23.18518987 6 24 C5.67 23.01 5.34 22.02 5 21 C6.32 20.01 7.64 19.02 9 18 C8.67 16.68 8.34 15.36 8 14 C6.68 14.33 5.36 14.66 4 15 C4.020625 16.299375 4.04125 17.59875 4.0625 18.9375 C4.08399454 20.29165633 4.07148199 21.64756083 4 23 C3 24 3 24 0.4375 24.0625 C-0.366875 24.041875 -1.17125 24.02125 -2 24 C-2.33 23.01 -2.66 22.02 -3 21 C-2.01 21 -1.02 21 0 21 C-0.309375 20.4225 -0.61875 19.845 -0.9375 19.25 C-1.92583364 17.15705816 -2.5168613 15.25464725 -3 13 C-2.34 12.67 -1.68 12.34 -1 12 C-0.34786708 9.97536745 -0.34786708 9.97536745 0 8 C-0.99 8 -1.98 8 -3 8 C-3 7.01 -3 6.02 -3 5 C-2.01 5 -1.02 5 0 5 C0 3.35 0 1.7 0 0 Z M4 8 C4 8.99 4 9.98 4 11 C7.465 10.505 7.465 10.505 11 10 C11 9.01 11 8.02 11 7 C7.10540926 6.78918149 7.10540926 6.78918149 4 8 Z M11 13 C11.99 13.99 12.98 14.98 14 16 C14.33 15.01 14.66 14.02 15 13 C13.68 13 12.36 13 11 13 Z " fill="#171717" transform="translate(521,9)"/>
<path d="M0 0 C7.26 0 14.52 0 22 0 C22 7.875 22 7.875 21 11.9375 C20.814375 12.70964844 20.62875 13.48179688 20.4375 14.27734375 C20.293125 14.84582031 20.14875 15.41429687 20 16 C20.99 16.66 21.98 17.32 23 18 C22.34 19.32 21.68 20.64 21 22 C19.68 21.34 18.36 20.68 17 20 C17 19.34 17 18.68 17 18 C14.69 19.32 12.38 20.64 10 22 C9.01 20.35 8.02 18.7 7 17 C5.02 18.65 3.04 20.3 1 22 C0.34 20.68 -0.32 19.36 -1 18 C0.32 16.35 1.64 14.7 3 13 C2.690625 12.4225 2.38125 11.845 2.0625 11.25 C1.07416636 9.15705816 0.4831387 7.25464725 0 5 C0.99 4.67 1.98 4.34 3 4 C3.99 5.485 3.99 5.485 5 7 C5.33 6.01 5.66 5.02 6 4 C3.03 3.505 3.03 3.505 0 3 C0 2.01 0 1.02 0 0 Z M10 3 C9.74971189 4.58013217 9.52559054 6.16442306 9.3125 7.75 C9.18488281 8.63171875 9.05726563 9.5134375 8.92578125 10.421875 C9.01602809 13.55676517 9.92615363 14.71823587 12 17 C13.62433191 14.49923002 14.07333427 13.41017471 13.5390625 10.421875 C13.23742187 9.54015625 12.93578125 8.6584375 12.625 7.75 C12.32851563 6.85796875 12.03203125 5.9659375 11.7265625 5.046875 C11.48679687 4.37140625 11.24703125 3.6959375 11 3 C10.67 3 10.34 3 10 3 Z M15 3 C15.33 5.31 15.66 7.62 16 10 C18.36980013 7.04622502 18.36980013 7.04622502 18 3 C17.01 3 16.02 3 15 3 Z " fill="#171717" transform="translate(394,12)"/>
<path d="M0 0 C1.32 0 2.64 0 4 0 C4 1.32 4 2.64 4 4 C6.64 4 9.28 4 12 4 C12 8.62 12 13.24 12 18 C12.66 18 13.32 18 14 18 C14.042721 19.66611905 14.04063832 21.33382885 14 23 C13 24 13 24 10.27734375 24.09765625 C9.17519531 24.08605469 8.07304687 24.07445313 6.9375 24.0625 C5.28041016 24.04896484 5.28041016 24.04896484 3.58984375 24.03515625 C2.73519531 24.02355469 1.88054687 24.01195313 1 24 C0.67 22.02 0.34 20.04 0 18 C-1.32 18 -2.64 18 -4 18 C-4 18.66 -4 19.32 -4 20 C-5.32 20 -6.64 20 -8 20 C-8 14.72 -8 9.44 -8 4 C-5.36 4 -2.72 4 0 4 C0 2.68 0 1.36 0 0 Z M-4 7 C-4 7.99 -4 8.98 -4 10 C-2.68 10 -1.36 10 0 10 C0 9.01 0 8.02 0 7 C-1.32 7 -2.64 7 -4 7 Z M4 7 C4 7.99 4 8.98 4 10 C5.32 10 6.64 10 8 10 C8 9.01 8 8.02 8 7 C6.68 7 5.36 7 4 7 Z M-4 13 C-4 13.66 -4 14.32 -4 15 C-2.68 15 -1.36 15 0 15 C0 14.34 0 13.68 0 13 C-1.32 13 -2.64 13 -4 13 Z M4 13 C4 13.66 4 14.32 4 15 C5.32 15 6.64 15 8 15 C8 14.34 8 13.68 8 13 C6.68 13 5.36 13 4 13 Z M4 18 C4.33 18.99 4.66 19.98 5 21 C6.65 21 8.3 21 10 21 C10.33 20.01 10.66 19.02 11 18 C8.69 18 6.38 18 4 18 Z " fill="#171717" transform="translate(478,9)"/>
<path d="M0 0 C5.94 0 11.88 0 18 0 C18.3125 7.375 18.3125 7.375 18.38793945 9.69287109 C18.48540529 11.47097055 18.7406809 13.23821373 19 15 C19.99 15.66 20.98 16.32 22 17 C21.67 18.65 21.34 20.3 21 22 C16.25 21.25 16.25 21.25 14 19 C12.35008418 18.29289322 10.68437744 17.62056011 9 17 C8.01 17.99 7.02 18.98 6 20 C5.01 19.67 4.02 19.34 3 19 C2.01 20.32 1.02 21.64 0 23 C-0.99 22.01 -1.98 21.02 -3 20 C-2.68289063 19.16210938 -2.36578125 18.32421875 -2.0390625 17.4609375 C-0.92971749 13.7659011 -0.59270398 10.47110373 -0.375 6.625 C-0.25125 4.43875 -0.1275 2.2525 0 0 Z M4 3 C4 3.66 4 4.32 4 5 C5.98 5.99 7.96 6.98 10 8 C10.33 6.68 10.66 5.36 11 4 C11.99 4 12.98 4 14 4 C13.07226562 6.97851562 13.07226562 6.97851562 12.14453125 9.95703125 C12.07298828 10.96830078 12.07298828 10.96830078 12 12 C12.99 12.99 13.98 13.98 15 15 C15 11.04 15 7.08 15 3 C11.37 3 7.74 3 4 3 Z M4 8 C3.67 10.64 3.34 13.28 3 16 C4.32 15.01 5.64 14.02 7 13 C6.34 11.35 5.68 9.7 5 8 C4.67 8 4.34 8 4 8 Z " fill="#171717" transform="translate(446,11)"/>
<path d="M0 0 C1.65 0 3.3 0 5 0 C4.67 0.99 4.34 1.98 4 3 C7.96 3 11.92 3 16 3 C16 3.99 16 4.98 16 6 C15.01 6.33 14.02 6.66 13 7 C13.01160156 8.07121094 13.02320313 9.14242188 13.03515625 10.24609375 C13.04453299 11.64322743 13.05363331 13.04036299 13.0625 14.4375 C13.07087891 15.14455078 13.07925781 15.85160156 13.08789062 16.58007812 C13.09653588 18.38693559 13.05220011 20.19387603 13 22 C12 23 12 23 8.9375 23.0625 C7.968125 23.041875 6.99875 23.02125 6 23 C6 22.01 6 21.02 6 20 C4.35 19.67 2.7 19.34 1 19 C1 20.32 1 21.64 1 23 C-0.32 23 -1.64 23 -3 23 C-3.33 20.36 -3.66 17.72 -4 15 C-4.99 15 -5.98 15 -7 15 C-7 11.09161134 -5.49432124 9.88405893 -3 7 C-4.32 6.67 -5.64 6.34 -7 6 C-7 5.01 -7 4.02 -7 3 C-4.69 3 -2.38 3 0 3 C0 2.01 0 1.02 0 0 Z M1 10 C1 10.66 1 11.32 1 12 C3.64 12 6.28 12 9 12 C9 11.34 9 10.68 9 10 C6.36 10 3.72 10 1 10 Z M1 15 C1 15.33 1 15.66 1 16 C3.64 16 6.28 16 9 16 C9 15.67 9 15.34 9 15 C6.36 15 3.72 15 1 15 Z " fill="#171717" transform="translate(551,10)"/>
<path d="M0 0 C0.68449219 0.14308594 1.36898438 0.28617188 2.07421875 0.43359375 C5.67123974 1.12994628 9.16698229 1.10785094 12.8125 1.0625 C13.50537109 1.05798828 14.19824219 1.05347656 14.91210938 1.04882812 C16.60811068 1.03713156 18.30406703 1.01919924 20 1 C20.02887814 4.47914941 20.04675687 7.95826831 20.0625 11.4375 C20.07087891 12.43072266 20.07925781 13.42394531 20.08789062 14.44726562 C20.09272461 15.86362305 20.09272461 15.86362305 20.09765625 17.30859375 C20.10551147 18.62041626 20.10551147 18.62041626 20.11352539 19.95874023 C20 22 20 22 19 23 C17.00041636 23.04080783 14.99954746 23.04254356 13 23 C12.67 22.01 12.34 21.02 12 20 C13.32 20 14.64 20 16 20 C16 14.72 16 9.44 16 4 C9.08704966 4.27271541 9.08704966 4.27271541 3 7 C2.61605333 9.77262255 2.39657752 12.34323528 2.3125 15.125 C2.27833984 15.87910156 2.24417969 16.63320313 2.20898438 17.41015625 C2.12645722 19.27291201 2.06155289 21.13643326 2 23 C0.68 23 -0.64 23 -2 23 C-2 17.06 -2 11.12 -2 5 C-1.01 5 -0.02 5 1 5 C0.34 3.68 -0.32 2.36 -1 1 C-0.67 0.67 -0.34 0.34 0 0 Z " fill="#171717" transform="translate(371,10)"/>
<path d="M0 0 C0.33 0.99 0.66 1.98 1 3 C0.01 3.495 0.01 3.495 -1 4 C-1.33 4.99 -1.66 5.98 -2 7 C-1.071875 7.103125 -0.14375 7.20625 0.8125 7.3125 C4.03254358 8.0070192 5.02579865 8.47740939 7 11 C6.67 11.99 6.34 12.98 6 14 C5.38125 13.67 4.7625 13.34 4.125 13 C2.08981656 11.85806765 2.08981656 11.85806765 0 12 C0.33 12.66 0.66 13.32 1 14 C0.67 14.66 0.34 15.32 0 16 C-0.66 16 -1.32 16 -2 16 C-2 18.64 -2 21.28 -2 24 C-3.32 24 -4.64 24 -6 24 C-6.33 22.35 -6.66 20.7 -7 19 C-7.66 19.33 -8.32 19.66 -9 20 C-9.6875 18.375 -9.6875 18.375 -10 16 C-8.5625 12.75 -8.5625 12.75 -7 10 C-7.99 10 -8.98 10 -10 10 C-10 9.01 -10 8.02 -10 7 C-8.68 7 -7.36 7 -6 7 C-6 6.34 -6 5.68 -6 5 C-6.99 5 -7.98 5 -9 5 C-9.33 4.01 -9.66 3.02 -10 2 C-3.375 0 -3.375 0 0 0 Z " fill="#171717" transform="translate(503,10)"/>
<path d="M0 0 C11.55 0 23.1 0 35 0 C35 1.65 35 3.3 35 5 C23.45 5 11.9 5 0 5 C0 3.35 0 1.7 0 0 Z " fill="#1B3646" transform="translate(195,39)"/>
<path d="M0 0 C1.32 0.33 2.64 0.66 4 1 C2.25 6.75 2.25 6.75 0 9 C1.65 9 3.3 9 5 9 C5 8.01 5 7.02 5 6 C5.99 5.67 6.98 5.34 8 5 C9.98 7.97 11.96 10.94 14 14 C13.34 14.66 12.68 15.32 12 16 C11.01 16 10.02 16 9 16 C9 15.34 9 14.68 9 14 C1.08 14.495 1.08 14.495 -7 15 C-7.33 13.68 -7.66 12.36 -8 11 C-6.82956356 9.47193021 -5.64584402 7.94847966 -4.34765625 6.52734375 C-2.58097487 4.52510486 -1.29914423 2.32478442 0 0 Z " fill="#171717" transform="translate(603,17)"/>
<path d="M0 0 C1.32 0 2.64 0 4 0 C4 4.29 4 8.58 4 13 C4.66 13 5.32 13 6 13 C6.33 14.32 6.66 15.64 7 17 C6.01 17 5.02 17 4 17 C4 19.31 4 21.62 4 24 C2.68 24 1.36 24 0 24 C0 22.02 0 20.04 0 18 C-3.96 18.495 -3.96 18.495 -8 19 C-7.67 17.68 -7.34 16.36 -7 15 C-5.02 14.67 -3.04 14.34 -1 14 C-1 11.69 -1 9.38 -1 7 C-1.61875 6.71125 -2.2375 6.4225 -2.875 6.125 C-5 5 -5 5 -7 3 C-6.01 2.34 -5.02 1.68 -4 1 C-3.01 1.66 -2.02 2.32 -1 3 C-0.67 2.01 -0.34 1.02 0 0 Z " fill="#171717" transform="translate(511,10)"/>
<path d="M0 0 C10.23 0 20.46 0 31 0 C31 1.65 31 3.3 31 5 C20.77 5 10.54 5 0 5 C0 3.35 0 1.7 0 0 Z " fill="#1B3646" transform="translate(197,16)"/>
<path d="M0 0 C6.93 0 13.86 0 21 0 C21 6.93 21 13.86 21 21 C17 23 17 23 14 23 C13.67 21.68 13.34 20.36 13 19 C14.32 19 15.64 19 17 19 C17 13.72 17 8.44 17 3 C11.39 3 5.78 3 0 3 C0 2.01 0 1.02 0 0 Z " fill="#171717" transform="translate(620,11)"/>
<path d="M0 0 C4.29 0 8.58 0 13 0 C13 2.97 13 5.94 13 9 C10.03 9 7.06 9 4 9 C4 9.66 4 10.32 4 11 C2.68 11 1.36 11 0 11 C0 7.37 0 3.74 0 0 Z M4 3 C4 3.99 4 4.98 4 6 C5.65 6 7.3 6 9 6 C9 5.01 9 4.02 9 3 C7.35 3 5.7 3 4 3 Z " fill="#171717" transform="translate(621,20)"/>
<path d="M0 0 C5.66666667 0 11.33333333 0 17 0 C16.01 0.33 15.02 0.66 14 1 C14 1.99 14 2.98 14 4 C14.99 4.33 15.98 4.66 17 5 C16.01 5 15.02 5 14 5 C14 5.99 14 6.98 14 8 C14.99 8.33 15.98 8.66 17 9 C15.02 9 13.04 9 11 9 C10.67 8.34 10.34 7.68 10 7 C9.67 7.66 9.34 8.32 9 9 C6.66666667 9 4.33333333 9 2 9 C1.34 6.03 0.68 3.06 0 0 Z " fill="#171717" transform="translate(481,41)"/>
<path d="M0 0 C0.99 0 1.98 0 3 0 C3.66 1.98 4.32 3.96 5 6 C5.33 4.02 5.66 2.04 6 0 C9 1 9 1 10 3 C10.33 2.01 10.66 1.02 11 0 C11.99 0 12.98 0 14 0 C14 2.97 14 5.94 14 9 C13.195625 8.814375 12.39125 8.62875 11.5625 8.4375 C10.716875 8.293125 9.87125 8.14875 9 8 C8.67 8.33 8.34 8.66 8 9 C6.33382885 9.04063832 4.66611905 9.042721 3 9 C3 8.34 3 7.68 3 7 C2.01 7 1.02 7 0 7 C0 7.66 0 8.32 0 9 C-0.66 9 -1.32 9 -2 9 C-1.34 6.03 -0.68 3.06 0 0 Z M1 3 C2 6 2 6 2 6 Z " fill="#171717" transform="translate(355,41)"/>
<path d="M0 0 C3 0 6 0 9 0 C9.86625 -0.020625 10.7325 -0.04125 11.625 -0.0625 C14 0 14 0 15 1 C15.125 4.5 15.125 4.5 15 8 C14 9 14 9 11.625 9.25 C8.51409645 8.95372347 8.0357425 8.22081 6 6 C5.01 6 4.02 6 3 6 C3 6.99 3 7.98 3 9 C2.01 9 1.02 9 0 9 C0 6.03 0 3.06 0 0 Z M3 1 C3.33 2.32 3.66 3.64 4 5 C4 3.68 4 2.36 4 1 C3.67 1 3.34 1 3 1 Z M10 1 C8.99782936 4.58327753 8.99782936 4.58327753 10 8 C10.99 7.67 11.98 7.34 13 7 C13 5.35 13 3.7 13 2 C12.01 1.67 11.02 1.34 10 1 Z " fill="#171717" transform="translate(466,41)"/>
<path d="M0 0 C1.2065625 0.0309375 1.2065625 0.0309375 2.4375 0.0625 C2.7675 1.0525 3.0975 2.0425 3.4375 3.0625 C4.0975 3.0625 4.7575 3.0625 5.4375 3.0625 C5.7675 2.0725 6.0975 1.0825 6.4375 0.0625 C8.0875 0.0625 9.7375 0.0625 11.4375 0.0625 C11.1075 0.7225 10.7775 1.3825 10.4375 2.0625 C9.7775 2.0625 9.1175 2.0625 8.4375 2.0625 C8.1075 4.0425 7.7775 6.0225 7.4375 8.0625 C8.4275 8.0625 9.4175 8.0625 10.4375 8.0625 C10.4375 7.4025 10.4375 6.7425 10.4375 6.0625 C9.7775 5.7325 9.1175 5.4025 8.4375 5.0625 C9.7575 5.0625 11.0775 5.0625 12.4375 5.0625 C12.1075 6.3825 11.7775 7.7025 11.4375 9.0625 C9.0625 9.1875 9.0625 9.1875 6.4375 9.0625 C5.7775 8.4025 5.1175 7.7425 4.4375 7.0625 C3.7775 7.7225 3.1175 8.3825 2.4375 9.0625 C-0.125 9.25 -0.125 9.25 -2.5625 9.0625 C-3.5625 8.0625 -3.5625 8.0625 -3.6875 4.5625 C-3.52762642 0.08603967 -3.52762642 0.08603967 0 0 Z M-0.5625 1.0625 C-1.85883621 2.12895115 -1.85883621 2.12895115 -1.625 4.625 C-1.604375 5.429375 -1.58375 6.23375 -1.5625 7.0625 C-0.5725 7.3925 0.4175 7.7225 1.4375 8.0625 C2.43967064 4.47922247 2.43967064 4.47922247 1.4375 1.0625 C0.7775 1.0625 0.1175 1.0625 -0.5625 1.0625 Z " fill="#171717" transform="translate(565.5625,40.9375)"/>
<path d="M0 0 C0 1.32 0 2.64 0 4 C0.66 4 1.32 4 2 4 C2 2.68 2 1.36 2 0 C2.66 0 3.32 0 4 0 C4 2.97 4 5.94 4 9 C3.34 9 2.68 9 2 9 C2 7.68 2 6.36 2 5 C1.34 5 0.68 5 0 5 C0 6.32 0 7.64 0 9 C-1.47906892 9.02689216 -2.95827483 9.04634621 -4.4375 9.0625 C-5.67306641 9.07990234 -5.67306641 9.07990234 -6.93359375 9.09765625 C-9 9 -9 9 -10 8 C-10.04092937 5.66702567 -10.04241723 3.33294775 -10 1 C-6.78548731 -0.60725635 -3.56387464 -0.05748185 0 0 Z M-7 1 C-8.29633621 2.06645115 -8.29633621 2.06645115 -8.0625 4.5625 C-8.041875 5.366875 -8.02125 6.17125 -8 7 C-7.01 7.33 -6.02 7.66 -5 8 C-4.34 7.67 -3.68 7.34 -3 7 C-3 5.02 -3 3.04 -3 1 C-4.32 1 -5.64 1 -7 1 Z " fill="#171717" transform="translate(533,41)"/>
<path d="M0 0 C0.66 0 1.32 0 2 0 C2.33 0.66 2.66 1.32 3 2 C3.33 1.34 3.66 0.68 4 0 C6 0 8 0 10 0 C9.67 2.97 9.34 5.94 9 9 C8.01 9 7.02 9 6 9 C5.67 8.34 5.34 7.68 5 7 C4.67 7.66 4.34 8.32 4 9 C3.01 8.67 2.02 8.34 1 8 C0.67 5.36 0.34 2.72 0 0 Z " fill="#171717" transform="translate(433,41)"/>
<path d="M0 0 C4.29 0 8.58 0 13 0 C12.01 0.33 11.02 0.66 10 1 C10 1.99 10 2.98 10 4 C10.99 4.33 11.98 4.66 13 5 C12.01 5 11.02 5 10 5 C10 5.99 10 6.98 10 8 C10.99 8.33 11.98 8.66 13 9 C11.02 9 9.04 9 7 9 C7 6.36 7 3.72 7 1 C6.01 1 5.02 1 4 1 C4 3.64 4 6.28 4 9 C3.34 9 2.68 9 2 9 C2 6.36 2 3.72 2 1 C1.34 0.67 0.68 0.34 0 0 Z " fill="#171717" transform="translate(509,41)"/>
<path d="M0 0 C3 0 6 0 9 0 C9 2.97 9 5.94 9 9 C7.35 9 5.7 9 4 9 C4 8.34 4 7.68 4 7 C3.34 7 2.68 7 2 7 C2 7.66 2 8.32 2 9 C1.01 8.67 0.02 8.34 -1 8 C-0.4740625 7.13375 -0.4740625 7.13375 0.0625 6.25 C1.14917407 3.64198224 0.93065133 2.60582371 0 0 Z M6 1 C5.34 2.32 4.68 3.64 4 5 C4.99 5.99 5.98 6.98 7 8 C7 5.69 7 3.38 7 1 C6.67 1 6.34 1 6 1 Z " fill="#171717" transform="translate(343,41)"/>
<path d="M0 0 C1.32 0.33 2.64 0.66 4 1 C0.14578588 9.6309795 0.14578588 9.6309795 -4 12 C-4.99 11.01 -5.98 10.02 -7 9 C-5.76302083 7.53515625 -4.52604167 6.0703125 -3.2890625 4.60546875 C-2.10798901 3.1344954 -1.04641471 1.56962206 0 0 Z " fill="#171717" transform="translate(600,10)"/>
<path d="M0 0 C0.99 0 1.98 0 3 0 C4.60546875 1.75 4.60546875 1.75 6.1875 4 C6.71730469 4.7425 7.24710938 5.485 7.79296875 6.25 C8.19128906 6.8275 8.58960938 7.405 9 8 C8.34 9.32 7.68 10.64 7 12 C0.75324675 5.92207792 0.75324675 5.92207792 -1 3 C-0.67 2.01 -0.34 1.02 0 0 Z " fill="#171717" transform="translate(608,10)"/>
<path d="M0 0 C1.98 0 3.96 0 6 0 C6.70074844 3.153368 7 5.72724974 7 9 C4.66666667 9 2.33333333 9 0 9 C0 6.03 0 3.06 0 0 Z M3 1 C3.33 2.32 3.66 3.64 4 5 C4 3.68 4 2.36 4 1 C3.67 1 3.34 1 3 1 Z " fill="#171717" transform="translate(499,41)"/>
<path d="M0 0 C0.99 0 1.98 0 3 0 C3.33 0.66 3.66 1.32 4 2 C4.33 1.34 4.66 0.68 5 0 C5.66 0 6.32 0 7 0 C7 2.97 7 5.94 7 9 C6.01 8.67 5.02 8.34 4 8 C3.67 7.34 3.34 6.68 3 6 C2.67 6.99 2.34 7.98 2 9 C1.34 9 0.68 9 0 9 C0 6.03 0 3.06 0 0 Z " fill="#171717" transform="translate(447,41)"/>
<path d="M0 0 C0.99 0 1.98 0 3 0 C3.33 0.66 3.66 1.32 4 2 C4.33 1.34 4.66 0.68 5 0 C5.66 0 6.32 0 7 0 C7 2.97 7 5.94 7 9 C6.01 8.67 5.02 8.34 4 8 C3.67 7.34 3.34 6.68 3 6 C2.67 6.99 2.34 7.98 2 9 C1.34 9 0.68 9 0 9 C0 6.03 0 3.06 0 0 Z " fill="#171717" transform="translate(403,41)"/>
<path d="M0 0 C3 1 3 1 4 3 C4.33 2.01 4.66 1.02 5 0 C5.66 0 6.32 0 7 0 C7 2.97 7 5.94 7 9 C6.01 8.67 5.02 8.34 4 8 C3.67 7.34 3.34 6.68 3 6 C2.67 6.99 2.34 7.98 2 9 C1.34 9 0.68 9 0 9 C0 6.03 0 3.06 0 0 Z " fill="#171717" transform="translate(539,41)"/>
<path d="M0 0 C3 1 3 1 4 3 C4.33 2.01 4.66 1.02 5 0 C5.66 0 6.32 0 7 0 C7 2.97 7 5.94 7 9 C6.01 8.67 5.02 8.34 4 8 C3.67 7.34 3.34 6.68 3 6 C2.67 6.99 2.34 7.98 2 9 C1.34 9 0.68 9 0 9 C0 6.03 0 3.06 0 0 Z " fill="#171717" transform="translate(377,41)"/>
<path d="M0 0 C4.95 0 9.9 0 15 0 C15 0.99 15 1.98 15 3 C10.05 3 5.1 3 0 3 C0 2.01 0 1.02 0 0 Z " fill="#171717" transform="translate(620,16)"/>
<path d="M0 0 C1.2684375 0.12375 1.2684375 0.12375 2.5625 0.25 C4.5625 3.25 4.5625 3.25 4.25 5.875 C3.5625 8.25 3.5625 8.25 2.5625 9.25 C0.0625 9.375 0.0625 9.375 -2.4375 9.25 C-3.4375 8.25 -3.4375 8.25 -3.5625 4.75 C-3.40533088 0.34926471 -3.40533088 0.34926471 0 0 Z M-0.4375 1.25 C-1.73383621 2.31645115 -1.73383621 2.31645115 -1.5 4.8125 C-1.479375 5.616875 -1.45875 6.42125 -1.4375 7.25 C-0.4475 7.58 0.5425 7.91 1.5625 8.25 C2.56467064 4.66672247 2.56467064 4.66672247 1.5625 1.25 C0.9025 1.25 0.2425 1.25 -0.4375 1.25 Z " fill="#171717" transform="translate(598.4375,40.75)"/>
<path d="M0 0 C1.65 0 3.3 0 5 0 C5.144375 0.7425 5.28875 1.485 5.4375 2.25 C5.90187492 4.52027739 6.41863569 6.75759479 7 9 C6.401875 8.814375 5.80375 8.62875 5.1875 8.4375 C2.83591238 7.77906313 2.83591238 7.77906313 0 9 C0 6.03 0 3.06 0 0 Z M2 1 C2 2.32 2 3.64 2 5 C2.66 5 3.32 5 4 5 C4 3.68 4 2.36 4 1 C3.34 1 2.68 1 2 1 Z " fill="#171717" transform="translate(412,41)"/>
<path d="M0 0 C0.33 0 0.66 0 1 0 C1 13.2 1 26.4 1 40 C0.67 40 0.34 40 0 40 C0 26.8 0 13.6 0 0 Z " fill="#BFBFBF" transform="translate(326,11)"/>
<path d="M0 0 C0.66 0 1.32 0 2 0 C2.33 2.31 2.66 4.62 3 7 C3.33 7 3.66 7 4 7 C4.33 4.69 4.66 2.38 5 0 C5.66 0 6.32 0 7 0 C7.09765625 6.15234375 7.09765625 6.15234375 7 8 C6 9 6 9 3.5 9.125 C1 9 1 9 0 8 C-0.14115161 5.32941149 -0.04247107 2.67567762 0 0 Z " fill="#171717" transform="translate(419,41)"/>
<path d="M0 0 C0.66 0 1.32 0 2 0 C2.33 2.31 2.66 4.62 3 7 C3.33 7 3.66 7 4 7 C4.33 4.69 4.66 2.38 5 0 C5.66 0 6.32 0 7 0 C7.09765625 6.15234375 7.09765625 6.15234375 7 8 C6 9 6 9 3.5 9.125 C1 9 1 9 0 8 C-0.14115161 5.32941149 -0.04247107 2.67567762 0 0 Z " fill="#171717" transform="translate(395,41)"/>
<path d="M0 0 C2.375 -0.1875 2.375 -0.1875 5 0 C7 3 7 3 6.6875 5.625 C6 8 6 8 5 9 C3.33382885 9.04063832 1.66611905 9.042721 0 9 C0 6.03 0 3.06 0 0 Z M2 1 C2 3.31 2 5.62 2 8 C2.66 8 3.32 8 4 8 C5.00217064 4.41672247 5.00217064 4.41672247 4 1 C3.34 1 2.68 1 2 1 Z " fill="#171717" transform="translate(632,41)"/>
<path d="M0 0 C2.375 -0.1875 2.375 -0.1875 5 0 C7 3 7 3 6.6875 5.625 C6 8 6 8 5 9 C3.33382885 9.04063832 1.66611905 9.042721 0 9 C0 6.03 0 3.06 0 0 Z M2 1 C2 3.31 2 5.62 2 8 C2.66 8 3.32 8 4 8 C5.00217064 4.41672247 5.00217064 4.41672247 4 1 C3.34 1 2.68 1 2 1 Z " fill="#171717" transform="translate(456,41)"/>
<path d="M0 0 C4.55555556 0.55555556 4.55555556 0.55555556 6 2 C6.1875 4.4375 6.1875 4.4375 6 7 C5.34 7.66 4.68 8.32 4 9 C-0.55555556 8.44444444 -0.55555556 8.44444444 -2 7 C-2.1875 4.5625 -2.1875 4.5625 -2 2 C-1.34 1.34 -0.68 0.68 0 0 Z M1 1 C-0.29633621 2.06645115 -0.29633621 2.06645115 -0.0625 4.5625 C-0.041875 5.366875 -0.02125 6.17125 0 7 C1.32 7 2.64 7 4 7 C4 5.35 4 3.7 4 2 C3.01 1.67 2.02 1.34 1 1 Z " fill="#171717" transform="translate(549,41)"/>
<path d="M0 0 C1.65 0 3.3 0 5 0 C5 0.66 5 1.32 5 2 C3.68 1.67 2.36 1.34 1 1 C1.680625 1.5775 2.36125 2.155 3.0625 2.75 C3.701875 3.4925 4.34125 4.235 5 5 C4.75 7.25 4.75 7.25 4 9 C2.35 9 0.7 9 -1 9 C-1.33 8.34 -1.66 7.68 -2 7 C0.475 7.495 0.475 7.495 3 8 C2.319375 7.4225 1.63875 6.845 0.9375 6.25 C0.298125 5.5075 -0.34125 4.765 -1 4 C-0.75 1.75 -0.75 1.75 0 0 Z " fill="#171717" transform="translate(389,41)"/>
<path d="M0 0 C2.31 0 4.62 0 7 0 C6.01 0.495 6.01 0.495 5 1 C5 3.64 5 6.28 5 9 C4.01 9 3.02 9 2 9 C2 6.36 2 3.72 2 1 C1.34 0.67 0.68 0.34 0 0 Z " fill="#171717" transform="translate(624,41)"/>
<path d="M0 0 C0.99 0 1.98 0 3 0 C3 2.64 3 5.28 3 8 C3.99 8.33 4.98 8.66 6 9 C4.02 9 2.04 9 0 9 C0 6.03 0 3.06 0 0 Z " fill="#171717" transform="translate(618,41)"/>
<path d="M0 0 C1.98 0 3.96 0 6 0 C4.68 0.33 3.36 0.66 2 1 C2 1.99 2 2.98 2 4 C2.99 4.33 3.98 4.66 5 5 C4.01 5 3.02 5 2 5 C2 5.99 2 6.98 2 8 C3.32 8.33 4.64 8.66 6 9 C4.02 9 2.04 9 0 9 C0 6.03 0 3.06 0 0 Z " fill="#171717" transform="translate(370,41)"/>
<path d="M0 0 C1.2065625 0.0309375 1.2065625 0.0309375 2.4375 0.0625 C2.4375 0.7225 2.4375 1.3825 2.4375 2.0625 C1.1175 1.7325 -0.2025 1.4025 -1.5625 1.0625 C-1.5625 3.3725 -1.5625 5.6825 -1.5625 8.0625 C-0.2425 7.7325 1.0775 7.4025 2.4375 7.0625 C2.4375 7.7225 2.4375 8.3825 2.4375 9.0625 C0.0625 9.25 0.0625 9.25 -2.5625 9.0625 C-4.5625 6.0625 -4.5625 6.0625 -4.25 3.4375 C-3.27807854 0.07995314 -3.27807854 0.07995314 0 0 Z " fill="#171717" transform="translate(591.5625,40.9375)"/>
<path d="M0 0 C0.66 0 1.32 0 2 0 C2.33 0.66 2.66 1.32 3 2 C3.33 1.34 3.66 0.68 4 0 C4.99 0.33 5.98 0.66 7 1 C6.01 3.64 5.02 6.28 4 9 C3.34 9 2.68 9 2 9 C1.34 6.03 0.68 3.06 0 0 Z " fill="#171717" transform="translate(578,41)"/>
<path d="M0 0 C0.99 0 1.98 0 3 0 C3 2.97 3 5.94 3 9 C2.01 9 1.02 9 0 9 C0 6.03 0 3.06 0 0 Z " fill="#171717" transform="translate(427,41)"/>
<path d="M0 0 C0.66 0 1.32 0 2 0 C2 2.64 2 5.28 2 8 C2.99 8.33 3.98 8.66 5 9 C3.35 9 1.7 9 0 9 C0 6.03 0 3.06 0 0 Z " fill="#171717" transform="translate(556,41)"/>
<path d="M0 0 C0.66 0 1.32 0 2 0 C2 2.97 2 5.94 2 9 C1.34 9 0.68 9 0 9 C0 6.03 0 3.06 0 0 Z " fill="#171717" transform="translate(444,41)"/>
<path d="M0 0 C0.99 0 1.98 0 3 0 C2.67 1.32 2.34 2.64 2 4 C1.34 3.67 0.68 3.34 0 3 C0 2.01 0 1.02 0 0 Z " fill="#171717" transform="translate(608,47)"/>
<path d="M0 0 C0.66 0 1.32 0 2 0 C2 0.66 2 1.32 2 2 C1.01 1.67 0.02 1.34 -1 1 C-0.67 0.67 -0.34 0.34 0 0 Z " fill="#171717" transform="translate(639,48)"/>
<path d="M0 0 C0.66 0 1.32 0 2 0 C2 0.66 2 1.32 2 2 C1.01 1.67 0.02 1.34 -1 1 C-0.67 0.67 -0.34 0.34 0 0 Z " fill="#171717" transform="translate(604,48)"/>
</svg>
